# xmcd
#
# Track frame offsets:
#	150
#	11210
#	21392
#	33807
#	46212
#	57382
#	69565
#	81522
#	93650
#	101762
#	111572
#	122477
#	129237
#	137500
#	145940
#	157750
#	165512
#	176410
#	185385
#	195580
#	204987
#	216410
#	226335
#	233975
#	245252
#	253527
#	264732
#	276622
#
# Disc length: 3794 seconds
#
# Revision: 5
# Processed by: cddbd v1.4PL0 Copyright (c) Steve Scherf et al.
# Submitted via: MusicWizard 6.0.0
#
DISCID=950ed01c
DTITLE=Johnny Cash - The SUN Years  [CD 2/3) - Country Boy
DYEAR=1995
DGENRE=Country
TTITLE0=I Love You Because (Alternate)
TTITLE1=Straight A's In Love
TTITLE2=Don't Make Me Go
TTITLE3=Next In Line
TTITLE4=Don't Make Me Go
TTITLE5=Give My Love To Rose (Alternate)
TTITLE6=Home Of The Blues
TTITLE7=Give My Love To Rose
TTITLE8=The Wreck Of The Old '97
TTITLE9=Rock ISland Line
TTITLE10=Belshazar
TTITLE11=Leave The Junk Alone (Demo)
TTITLE12=Country Boy (Demo)
TTITLE13=Country Boy
TTITLE14=Doin' My Time
TTITLE15=If The Good Lord's Willing
TTITLE16=I Heard That Lonesome Whistle Blow
TTITLE17=Remember Me (I'm The One Who Loves You)
TTITLE18=I Was There When It Happened
TTITLE19=Come In Stranger (Alternate)
TTITLE20=Big River
TTITLE21=Ballad Of A Teenage Queen
TTITLE22=Come In Stranger
TTITLE23=Oh Lonsome Me
TTITLE24=Guess Things Happen That Way
TTITLE25=Oh Lonsome Me
TTITLE26=You're The Nearest Thing To Heaven (Alternate)
TTITLE27=Sugartime
EXTD=(c)1995 Charly Holdings UK\n(p)1984 Charly Records\nCDSUNBox 5/2\n
EXTT0=
EXTT1=
EXTT2=
EXTT3=
EXTT4=
EXTT5=
EXTT6=
EXTT7=
EXTT8=
EXTT9=
EXTT10=
EXTT11=
EXTT12=
EXTT13=
EXTT14=
EXTT15=
EXTT16=
EXTT17=
EXTT18=
EXTT19=
EXTT20=
EXTT21=
EXTT22=
EXTT23=
EXTT24=
EXTT25=
EXTT26=
EXTT27=
PLAYORDER=
